<svg xmlns="http://www.w3.org/2000/svg" xml:space="preserve" width="624.20001" height="165.5" viewBox="0 0 624.20001 165.5"><defs><clipPath id="a" clipPathUnits="userSpaceOnUse"><path d="M196.936 471.326c-9.307-.091-16.838-7.674-16.838-17.018 0-9.398 7.621-17.015 17.006-17.015 9.366 0 16.958 7.544 17.032 16.883v.267c-.073 9.283-7.575 16.793-16.864 16.883z"/></clipPath><clipPath id="c" clipPathUnits="userSpaceOnUse"><path d="M185.592 465.827c-5.686-5.687-6.26-14.354-1.27-19.344 4.998-4.992 13.656-4.421 19.342 1.267 5.698 5.701 6.272 14.364 1.282 19.356-2.278 2.281-5.326 3.402-8.507 3.402-3.783 0-7.752-1.586-10.847-4.681"/></clipPath><clipPath id="e" clipPathUnits="userSpaceOnUse"><path d="m197.262 468.632-.352-.117c-7.995 0-13.987-6.68-13.987-14.637 0-3.848 1.512-7.472 4.251-10.197 2.736-2.728 6.359-4.103 10.232-4.103 3.886 0 7.54 1.463 10.275 4.189 2.742 2.728 4.252 6.348 4.252 10.198v.828l-.348.297-10.525-.001v-1.687l.26-.35s.033-.034.091-.034H210.217c-.453-6.659-6.072-11.875-12.781-11.875-3.424 0-6.64 1.331-9.062 3.734a12.597 12.597 0 0 0-3.744 9.001c0 3.404 1.259 6.667 3.673 9.068 2.431 2.396 5.485 3.664 9.15 3.743l.692.012h.076c.046.004.09.006.09.111v1.381c0 .1-.035.148-.035.148l-.311.39zm-.538-7.114h-.074v-.019l-.104-.03.104-.169.004-14.376-.42-.243.324-.227c.026-.015.124-.072.237-.07h4.732c.05.009.093.043.093.116v1.314c0 .101-.013.133-.034.162l-.249.389h-3.094l.013 13.087c0 .077-.031.111-.031.111l-.227.391zm-7.119-2.036a2.28 2.28 0 0 1 2.289-2.268 2.277 2.277 0 0 1 2.286 2.268 2.281 2.281 0 0 1-2.286 2.273 2.284 2.284 0 0 1-2.289-2.273"/></clipPath><clipPath id="g" clipPathUnits="userSpaceOnUse"><path d="M0 841.89h595.28V0H0Z"/></clipPath><clipPath id="h" clipPathUnits="userSpaceOnUse"><path d="m197.619 461.641.012-13.574.367.298v13.589z"/></clipPath><clipPath id="j" clipPathUnits="userSpaceOnUse"><path d="M201.003 448.041v-1.016l.334-.344v1.684z"/></clipPath><clipPath id="l" clipPathUnits="userSpaceOnUse"><path d="M0 841.89h595.28V0H0Z"/></clipPath><clipPath id="m" clipPathUnits="userSpaceOnUse"><path d="M189.456 459.742c0-1.223.995-2.213 2.221-2.213 1.23 0 2.221.99 2.221 2.213a2.22 2.22 0 0 1-2.221 2.221 2.223 2.223 0 0 1-2.221-2.221m.329 0a1.89 1.89 0 0 0 1.892 1.887 1.889 1.889 0 0 0 1.891-1.887c0-1.038-.847-1.88-1.891-1.88a1.887 1.887 0 0 0-1.892 1.88"/></clipPath><clipPath id="o" clipPathUnits="userSpaceOnUse"><path d="M0 841.89h595.28V0H0Z"/></clipPath><clipPath id="p" clipPathUnits="userSpaceOnUse"><path d="M182.69 454.314c0-3.85 1.499-7.473 4.223-10.196a14.29 14.29 0 0 1 10.184-4.229c3.859 0 7.487 1.503 10.209 4.229a14.336 14.336 0 0 1 4.218 10.196v.83l-.332-.334v-.496c0-3.762-1.463-7.3-4.118-9.962a14.01 14.01 0 0 0-9.977-4.133c-3.756 0-7.291 1.47-9.95 4.133a14.008 14.008 0 0 0-4.128 9.962c0 7.771 6.318 14.093 14.078 14.093l.542.007.326.317-.868.009c-7.941 0-14.407-6.471-14.407-14.426"/></clipPath><clipPath id="r" clipPathUnits="userSpaceOnUse"><path d="M196.912 467.373c-3.411-.048-6.612-1.403-9.048-3.822a12.986 12.986 0 0 1-3.816-9.237c0-3.491 1.356-6.767 3.816-9.235a13 13 0 0 1 9.073-3.83h.334c6.776.085 12.411 5.407 12.868 12.181l.014.361-.17-.153-.172-.184c-.457-6.66-6.038-11.872-12.704-11.872a12.684 12.684 0 0 0-9.003 3.728 12.664 12.664 0 0 0-3.717 9.004c0 3.403 1.318 6.605 3.717 9.005 2.415 2.396 5.608 3.724 9.003 3.724l.858-.008-.329.331-.374.007z"/></clipPath><clipPath id="t" clipPathUnits="userSpaceOnUse"><path d="M0 841.89h595.28V0H0Z"/></clipPath><clipPath id="u" clipPathUnits="userSpaceOnUse"><path d="M197.639 468.414v-1.05l.326-.329v1.696z"/></clipPath><clipPath id="w" clipPathUnits="userSpaceOnUse"><path d="M196.916 468.559c-7.757-.092-14.058-6.445-14.058-14.245 0-3.807 1.484-7.379 4.173-10.069a14.116 14.116 0 0 1 10.057-4.173c3.815 0 7.393 1.478 10.081 4.173a14.143 14.143 0 0 1 4.166 10.069v.647l-.56-.003h-9.603v-1.32h8.811c0-.032 0-.169-.004-.193-.457-6.713-6.053-12.045-12.882-12.045a12.832 12.832 0 0 0-9.128 3.786 12.838 12.838 0 0 0-3.779 9.128 12.84 12.84 0 0 0 3.779 9.132 12.868 12.868 0 0 0 9.128 3.776l.681-.001v1.332c-.131 0-.359.004-.53.006zm-.496-6.783v-14.913h4.74v1.33h-3.382v13.583z"/></clipPath><clipPath id="y" clipPathUnits="userSpaceOnUse"><path d="M189.626 459.742a2.04 2.04 0 0 1 2.042-2.034 2.04 2.04 0 0 1 2.044 2.034 2.043 2.043 0 1 1-4.086 0"/></clipPath><clipPath id="A" clipPathUnits="userSpaceOnUse"><path d="M0 841.89h595.28V0H0Z"/></clipPath><clipPath id="B" clipPathUnits="userSpaceOnUse"><path d="M0 841.89h595.28V0H0Z"/></clipPath><linearGradient id="d" x1="0" x2="1" y1="0" y2="0" gradientTransform="rotate(-70 429.869 98.922) scale(26.24919)" gradientUnits="userSpaceOnUse" spreadMethod="pad"><stop offset="0" style="stop-opacity:1;stop-color:#f48a96"/><stop offset="0.54655496" style="stop-opacity:1;stop-color:#bf1f42"/><stop offset="0.801102" style="stop-opacity:1;stop-color:#bf1f42"/><stop offset="1" style="stop-opacity:1;stop-color:#bf1f42"/></linearGradient><linearGradient id="f" x1="0" x2="1" y1="0" y2="0" gradientTransform="scale(29.12825) rotate(-45 22.459 .216)" gradientUnits="userSpaceOnUse" spreadMethod="pad"><stop offset="0" style="stop-opacity:1;stop-color:#cd435d"/><stop offset="0.33360133" style="stop-opacity:1;stop-color:#901834"/><stop offset="1" style="stop-opacity:1;stop-color:#901834"/></linearGradient><linearGradient id="i" x1="0" x2="1" y1="0" y2="0" gradientTransform="matrix(.3789 0 0 .3789 197.619 455.01)" gradientUnits="userSpaceOnUse" spreadMethod="pad"><stop offset="0" style="stop-opacity:1;stop-color:#b4bdc3"/><stop offset="0.84583048" style="stop-opacity:1;stop-color:#343a41"/><stop offset="1" style="stop-opacity:1;stop-color:#343a41"/></linearGradient><linearGradient id="k" x1="0" x2="1" y1="0" y2="0" gradientTransform="matrix(.334 0 0 .334 201.003 447.523)" gradientUnits="userSpaceOnUse" spreadMethod="pad"><stop offset="0" style="stop-opacity:1;stop-color:#b3bbc2"/><stop offset="0.8410146" style="stop-opacity:1;stop-color:#2a3337"/><stop offset="1" style="stop-opacity:1;stop-color:#2a3337"/></linearGradient><linearGradient id="n" x1="0" x2="1" y1="0" y2="0" gradientTransform="matrix(3.13747 -3.13745 -3.13745 -3.13745 190.101 461.319)" gradientUnits="userSpaceOnUse" spreadMethod="pad"><stop offset="0" style="stop-opacity:1;stop-color:#abbac3"/><stop offset="0.99191589" style="stop-opacity:1;stop-color:#262b31"/><stop offset="1" style="stop-opacity:1;stop-color:#262b31"/></linearGradient><linearGradient id="q" x1="0" x2="1" y1="0" y2="0" gradientTransform="scale(29.07349 -29.07349) rotate(45 22.501 -.23)" gradientUnits="userSpaceOnUse" spreadMethod="pad"><stop offset="0" style="stop-opacity:1;stop-color:#b4bdc3"/><stop offset="0.00349772" style="stop-opacity:1;stop-color:#b4bdc3"/><stop offset="1" style="stop-opacity:1;stop-color:#3e454e"/></linearGradient><linearGradient id="s" x1="0" x2="1" y1="0" y2="0" gradientTransform="matrix(-26.10017 0 0 26.10017 210.145 454.308)" gradientUnits="userSpaceOnUse" spreadMethod="pad"><stop offset="0" style="stop-opacity:1;stop-color:#b4bdc3"/><stop offset="0.00363673" style="stop-opacity:1;stop-color:#b4bdc3"/><stop offset="1" style="stop-opacity:1;stop-color:#49525a"/></linearGradient><linearGradient id="v" x1="0" x2="1" y1="0" y2="0" gradientTransform="matrix(.32857 0 0 .32857 197.636 467.883)" gradientUnits="userSpaceOnUse" spreadMethod="pad"><stop offset="0" style="stop-opacity:1;stop-color:#b3bbc2"/><stop offset="0.8410146" style="stop-opacity:1;stop-color:#2a3337"/><stop offset="1" style="stop-opacity:1;stop-color:#2a3337"/></linearGradient><radialGradient id="b" cx="0" cy="0" r="1" fx="0" fy="0" gradientTransform="matrix(17.73952 0 0 -17.73952 196.494 454.837)" gradientUnits="userSpaceOnUse" spreadMethod="pad"><stop offset="0" style="stop-opacity:1;stop-color:#bf1f42"/><stop offset="0.5" style="stop-opacity:1;stop-color:#bf1f42"/><stop offset="0.88487035" style="stop-opacity:1;stop-color:#bf1f42"/><stop offset="1" style="stop-opacity:1;stop-color:#981a30"/></radialGradient><radialGradient id="x" cx="0" cy="0" r="1" fx="0" fy="0" gradientTransform="translate(191.354 460.348) scale(21.77519)" gradientUnits="userSpaceOnUse" spreadMethod="pad"><stop offset="0" style="stop-opacity:1;stop-color:#fff"/><stop offset="0.350006" style="stop-opacity:1;stop-color:#fff"/><stop offset="0.66652609" style="stop-opacity:1;stop-color:#fff"/><stop offset="1" style="stop-opacity:1;stop-color:#c0ccd2"/></radialGradient><radialGradient id="z" cx="0" cy="0" r="1" fx="0" fy="0" gradientTransform="matrix(3.1805 0 0 3.1805 190.822 460.494)" gradientUnits="userSpaceOnUse" spreadMethod="pad"><stop offset="0" style="stop-opacity:1;stop-color:#fff"/><stop offset="0.350006" style="stop-opacity:1;stop-color:#fff"/><stop offset="0.66553083" style="stop-opacity:1;stop-color:#fff"/><stop offset="1" style="stop-opacity:1;stop-color:#d0dae0"/></radialGradient></defs><g clip-path="url(#a)" transform="matrix(4.8612 0 0 -4.8612 -875.491 2291.207)"><path d="M196.936 471.326c-9.307-.091-16.838-7.674-16.838-17.018 0-9.398 7.621-17.015 17.006-17.015 9.366 0 16.958 7.544 17.032 16.883v.267c-.073 9.283-7.575 16.793-16.864 16.883z" style="fill:url(#b);stroke:none"/></g><g clip-path="url(#c)" transform="matrix(4.8612 0 0 -4.8612 -875.491 2291.207)"><path d="M185.592 465.827c-5.686-5.687-6.26-14.354-1.27-19.344 4.998-4.992 13.656-4.421 19.342 1.267 5.698 5.701 6.272 14.364 1.282 19.356-2.278 2.281-5.326 3.402-8.507 3.402-3.783 0-7.752-1.586-10.847-4.681" style="fill:url(#d);stroke:none"/></g><g clip-path="url(#e)" transform="matrix(4.8612 0 0 -4.8612 -875.491 2291.207)"><path d="m197.262 468.632-.352-.117c-7.995 0-13.987-6.68-13.987-14.637 0-3.848 1.512-7.472 4.251-10.197 2.736-2.728 6.359-4.103 10.232-4.103 3.886 0 7.54 1.463 10.275 4.189 2.742 2.728 4.252 6.348 4.252 10.198v.828l-.348.297-10.525-.001v-1.687l.26-.35s.033-.034.091-.034H210.217c-.453-6.659-6.072-11.875-12.781-11.875-3.424 0-6.64 1.331-9.062 3.734a12.597 12.597 0 0 0-3.744 9.001c0 3.404 1.259 6.667 3.673 9.068 2.431 2.396 5.485 3.664 9.15 3.743l.692.012h.076c.046.004.09.006.09.111v1.381c0 .1-.035.148-.035.148l-.311.39zm-.538-7.114h-.074v-.019l-.104-.03.104-.169.004-14.376-.42-.243.324-.227c.026-.015.124-.072.237-.07h4.732c.05.009.093.043.093.116v1.314c0 .101-.013.133-.034.162l-.249.389h-3.094l.013 13.087c0 .077-.031.111-.031.111l-.227.391zm-7.119-2.036a2.28 2.28 0 0 1 2.289-2.268 2.277 2.277 0 0 1 2.286 2.268 2.281 2.281 0 0 1-2.286 2.273 2.284 2.284 0 0 1-2.289-2.273" style="fill:url(#f);stroke:none"/></g><g clip-path="url(#g)" transform="matrix(4.8612 0 0 -4.8612 -875.491 2291.207)"><path d="m0 0-.348-.333h5.105l-.334.345Z" style="fill:#636e78;fill-opacity:1;fill-rule:nonzero;stroke:none" transform="translate(196.58 447.014)"/><path d="m0 0 .334.324h-3.339L-3.404 0Z" style="fill:#8598a3;fill-opacity:1;fill-rule:nonzero;stroke:none" transform="translate(201.003 448.04)"/><path d="M0 0h-1.766l.332-.315h1.055z" style="fill:#8d9aa2;fill-opacity:1;fill-rule:nonzero;stroke:none" transform="translate(197.998 461.955)"/></g><g clip-path="url(#h)" transform="matrix(4.8612 0 0 -4.8612 -875.491 2291.207)"><path d="m197.619 461.641.012-13.574.367.298v13.589z" style="fill:url(#i);stroke:none"/></g><g clip-path="url(#j)" transform="matrix(4.8612 0 0 -4.8612 -875.491 2291.207)"><path d="M201.003 448.041v-1.016l.334-.344v1.684z" style="fill:url(#k);stroke:none"/></g><g clip-path="url(#l)" transform="matrix(4.8612 0 0 -4.8612 -875.491 2291.207)"><path d="M0 0v-15.272l.348.33L.333-.315z" style="fill:#b4bdc3;fill-opacity:1;fill-rule:nonzero;stroke:none" transform="translate(196.232 461.955)"/></g><g clip-path="url(#m)" transform="matrix(4.8612 0 0 -4.8612 -875.491 2291.207)"><path d="M189.456 459.742c0-1.223.995-2.213 2.221-2.213 1.23 0 2.221.99 2.221 2.213a2.22 2.22 0 0 1-2.221 2.221 2.223 2.223 0 0 1-2.221-2.221m.329 0a1.89 1.89 0 0 0 1.892 1.887 1.889 1.889 0 0 0 1.891-1.887c0-1.038-.847-1.88-1.891-1.88a1.887 1.887 0 0 0-1.892 1.88" style="fill:url(#n);stroke:none"/></g><g clip-path="url(#o)" transform="matrix(4.8612 0 0 -4.8612 -875.491 2291.207)"><path d="m0 0-8.819.01-.328-.344h8.809l.174.181z" style="fill:#515d62;fill-opacity:1;fill-rule:nonzero;stroke:none" transform="translate(210.147 453.79)"/><path d="m0 0 9.864.016.334.335H-.328Z" style="fill:#8f9ca4;fill-opacity:1;fill-rule:nonzero;stroke:none" transform="translate(201.328 454.794)"/></g><g clip-path="url(#p)" transform="matrix(4.8612 0 0 -4.8612 -875.491 2291.207)"><path d="M182.69 454.314c0-3.85 1.499-7.473 4.223-10.196a14.29 14.29 0 0 1 10.184-4.229c3.859 0 7.487 1.503 10.209 4.229a14.336 14.336 0 0 1 4.218 10.196v.83l-.332-.334v-.496c0-3.762-1.463-7.3-4.118-9.962a14.01 14.01 0 0 0-9.977-4.133c-3.756 0-7.291 1.47-9.95 4.133a14.008 14.008 0 0 0-4.128 9.962c0 7.771 6.318 14.093 14.078 14.093l.542.007.326.317-.868.009c-7.941 0-14.407-6.471-14.407-14.426" style="fill:url(#q);stroke:none"/></g><g clip-path="url(#r)" transform="matrix(4.8612 0 0 -4.8612 -875.491 2291.207)"><path d="M196.912 467.373c-3.411-.048-6.612-1.403-9.048-3.822a12.986 12.986 0 0 1-3.816-9.237c0-3.491 1.356-6.767 3.816-9.235a13 13 0 0 1 9.073-3.83h.334c6.776.085 12.411 5.407 12.868 12.181l.014.361-.17-.153-.172-.184c-.457-6.66-6.038-11.872-12.704-11.872a12.684 12.684 0 0 0-9.003 3.728 12.664 12.664 0 0 0-3.717 9.004c0 3.403 1.318 6.605 3.717 9.005 2.415 2.396 5.608 3.724 9.003 3.724l.858-.008-.329.331-.374.007z" style="fill:url(#s);stroke:none"/></g><g clip-path="url(#t)" transform="matrix(4.8612 0 0 -4.8612 -875.491 2291.207)"><path d="m0 0-.328.351v-1.69L0-.995Z" style="fill:#b4bdc3;fill-opacity:1;fill-rule:nonzero;stroke:none" transform="translate(201.328 454.794)"/></g><g clip-path="url(#u)" transform="matrix(4.8612 0 0 -4.8612 -875.491 2291.207)"><path d="M197.639 468.414v-1.05l.326-.329v1.696z" style="fill:url(#v);stroke:none"/></g><g clip-path="url(#w)" transform="matrix(4.8612 0 0 -4.8612 -875.491 2291.207)"><path d="M196.916 468.559c-7.757-.092-14.058-6.445-14.058-14.245 0-3.807 1.484-7.379 4.173-10.069a14.116 14.116 0 0 1 10.057-4.173c3.815 0 7.393 1.478 10.081 4.173a14.143 14.143 0 0 1 4.166 10.069v.647l-.56-.003h-9.603v-1.32h8.811c0-.032 0-.169-.004-.193-.457-6.713-6.053-12.045-12.882-12.045a12.832 12.832 0 0 0-9.128 3.786 12.838 12.838 0 0 0-3.779 9.128 12.84 12.84 0 0 0 3.779 9.132 12.868 12.868 0 0 0 9.128 3.776l.681-.001v1.332c-.131 0-.359.004-.53.006zm-.496-6.783v-14.913h4.74v1.33h-3.382v13.583z" style="fill:url(#x);stroke:none"/></g><g clip-path="url(#y)" transform="matrix(4.8612 0 0 -4.8612 -875.491 2291.207)"><path d="M189.626 459.742a2.04 2.04 0 0 1 2.042-2.034 2.04 2.04 0 0 1 2.044 2.034 2.043 2.043 0 1 1-4.086 0" style="fill:url(#z);stroke:none"/></g><g clip-path="url(#A)" transform="matrix(4.8612 0 0 -4.8612 -875.491 2291.207)"><path d="M0 0c.467 0 .891-.168 1.239-.435a2.024 2.024 0 0 1-1.61.801 2.04 2.04 0 0 1-2.044-2.04c0-.653.316-1.227.793-1.597a2.013 2.013 0 0 0-.425 1.228C-2.047-.913-1.127 0 0 0" style="fill:#fff;fill-opacity:1;fill-rule:nonzero;stroke:none" transform="translate(192.04 461.418)"/><path d="M0 0c-.178.004-.518.01-.689.01-7.835 0-14.228-6.392-14.228-14.249a14.16 14.16 0 0 1 4.169-10.069c.086-.088.176-.169.262-.254a14.154 14.154 0 0 0-3.931 9.824C-14.417-6.901-8.868-.393 0 0" style="fill:#fff;fill-opacity:1;fill-rule:nonzero;stroke:none" transform="translate(197.777 468.552)"/><path d="M0 0s.975-.284 3.382-.284V0Z" style="fill:#fff;fill-opacity:1;fill-rule:nonzero;stroke:none" transform="translate(197.777 448.192)"/><path d="M0 0v.42h-1.357v-14.915S-.932-12.224-.932 0z" style="fill:#fff;fill-opacity:1;fill-rule:nonzero;stroke:none" transform="translate(197.777 461.356)"/><path d="m0 0-10.164-.001v-1.323h.368v.954C-.938-.37 0 0 0 0" style="fill:#fff;fill-opacity:1;fill-rule:nonzero;stroke:none" transform="translate(211.335 454.962)"/><path d="M0 0c-.001-.029-.001-.17-.008-.199-.451-6.706-6.051-12.04-12.881-12.04a12.844 12.844 0 0 0-9.13 3.788 12.798 12.798 0 0 0-3.302 5.648 13.083 13.083 0 0 1 12.655-9.592C-6.18-12.395-.207-7.313.167 0z" style="fill:#fff;fill-opacity:1;fill-rule:nonzero;stroke:none" transform="translate(209.984 453.638)"/></g><g clip-path="url(#B)" transform="matrix(4.8612 0 0 -4.8612 -875.491 2291.207)"><path d="M0 0h-4.054v6.063h-3.907v-22.79h3.419c.314 1.34.488 3.65.488 5.456v7.997H0Zm-23.646 5.649V2.447h4.644V.901c0-4.081-.832-6.645-5.061-8.502l1.593-2.833c2.415.904 4.685 2.615 5.739 4.788 1.05-2.053 3.247-3.737 5.375-4.568l1.904 3.324c-4.105 1.537-5.522 3.933-5.522 7.816v1.521h4.516v3.202zm-2.319-19.079h-12.022c-.317 0-.416.071-.416.416v4.761h-4.082v-6.424c0-1.393.71-2.05 2.105-2.05h14.415zm-.417 19.493h-4.079V1.422h-3.837v-3.347h3.837v-8.477h3.591c.293 1.149.488 3.077.488 4.471zm-20.252-.439V2.398h4.444v-.83c0-3.32-1.342-5.082-4.956-6.23l1.367-3.077c2.492.586 4.932 2.051 5.936 4.055 1.074-2.004 3.421-3.395 5.593-3.909l1.738 3.517c-3.154.685-5.424 2.397-5.424 5.668v.806h4.372v3.226z" style="fill:#6d6f71;fill-opacity:1;fill-rule:nonzero;stroke:none" transform="translate(308.467 459.713)"/><path d="M0 0h9.328v4.286H-1.207V22h-5.08V0Z" style="fill:#6d6f71;fill-opacity:1;fill-rule:nonzero;stroke:none" transform="translate(228.024 443.31)"/><path d="M0 0h4.14v-3.845c-.766-.293-2.251-.582-3.669-.582-4.573 0-6.1 2.322-6.1 7.041 0 4.502 1.451 7.151 6.025 7.151 2.546 0 3.996-.798 5.193-2.323l3.16 2.905C6.822 13.104 3.45 13.94.289 13.94c-7.116 0-10.855-3.885-10.855-11.287 0-7.372 3.376-11.366 10.82-11.366 3.411 0 6.752.873 8.567 2.142V4.103H0Z" style="fill:#6d6f71;fill-opacity:1;fill-rule:nonzero;stroke:none" transform="translate(248.531 451.696)"/></g></svg>