<svg xmlns="http://www.w3.org/2000/svg" xml:space="preserve" width="982.946px" height="188.637px" x="0px" y="0px" viewBox="0 0 982.946 188.637"><g fill="#03CF5D"><path d="m282.563.197-73.975 188.637h62.879l8.935-24.967h70.902l8.934 24.967h62.878L349.141.197h-66.578zm12.203 118.361 21.086-58.927 21.087 58.927h-42.173zM684.805 117.171H770.8v-45.31h-85.995V46.432h86.92V.197H624.699v188.637h148.876V142.6h-88.77zM498.016 124.231 453.632.197h-62.88l73.976 188.637h66.577L605.281.197h-62.878zM128.14 101.158 57.864.197H-.392v188.637h61.03V87.874l70.277 100.96h58.255V.197h-61.03zM934.863 124.121l5.722-2.395c21.922-9.176 33.072-29.031 33.072-54.23 0-23.828-8.691-41.457-25.833-52.395C931.891 4.933 911.226.196 882.794.196h-79.631v188.637h59.182v-52.708h21.268l36.064 52.708h62.878l-47.692-64.712zm-41.078-36.078H861.42V48.281h32.365c10.979 0 19.88 8.901 19.88 19.88 0 10.981-8.902 19.882-19.88 19.882z"/></g></svg>