<svg xmlns="http://www.w3.org/2000/svg" xml:space="preserve" width="1147.1735" height="300" viewBox="0 0 1147.1737 299.99999"><path d="M0 0c3.148 0 5.809-1.558 7.428-4.012 0 0 1.283-1.916 2.177-2.417.899-.511 2.204-.783 3.083-.596.861.195 1.396.357.976 1.826C11.955.743 6.555 4.877 0 4.877c-7.957 0-14.191-6.136-14.191-14.135 0-8.013 6.234-14.149 14.191-14.149 6.361 0 11.334 3.625 13.434 9.468.632 1.692.109 1.933.109 1.933s-.522.722-2.65.234c-2.139-.501-3.081-2.175-3.081-2.175C6.248-16.656 3.344-18.509 0-18.509c-5.051 0-9.086 4.244-9.086 9.251C-9.086-4.2-5.051 0 0 0" style="fill:#00588a;fill-opacity:1;fill-rule:nonzero;stroke:none" transform="matrix(7.65187 0 0 -7.65187 803.48 37.319)"/><path d="M0 0c0 5.058 4.014 9.258 9.051 9.258 5.031 0 9.047-4.2 9.047-9.258 0-5.007-4.016-9.251-9.047-9.251C4.014-9.251 0-5.007 0 0m23.191 0c0 7.999-6.228 14.135-14.14 14.135C1.131 14.135-5.09 7.999-5.09 0c0-8.014 6.221-14.149 14.141-14.149 7.912 0 14.14 6.135 14.14 14.149" style="fill:#00588a;fill-opacity:1;fill-rule:nonzero;stroke:none" transform="matrix(7.65187 0 0 -7.65187 277.19 108.16)"/><path d="M0 0c5.027 0 9.041-4.2 9.041-9.258 0-5.007-4.014-9.251-9.041-9.251-5.039 0-9.053 4.244-9.053 9.251C-9.053-4.2-5.039 0 0 0m0-23.407c7.914 0 14.139 6.136 14.139 14.149C14.139-1.259 7.914 4.877 0 4.877c-7.922 0-14.148-6.136-14.148-14.135 0-8.013 6.226-14.149 14.148-14.149" style="fill:#00588a;fill-opacity:1;fill-rule:nonzero;stroke:none" transform="matrix(7.65187 0 0 -7.65187 1038.984 37.319)"/><path d="m0 0 12.133-.144c1.621-.078 2.043-.87 1.471-2.297-1.034-2.579-4.643-4.637-7.79-4.598-3.849.045-5.789 1.993-7.257 3.531-1.491 1.561-4.209 1.587-5.084 1.248-.873-.318-.463-1.661-.104-2.37 2.324-4.524 7.393-7.023 12.193-7.09 5.112-.058 9.686 2.41 12.358 6.732 2.685 4.337 1.525 9.586-4.582 9.663l-13.813.169c-2.019.027-2.222 1.294-1.63 2.501 1.298 2.661 4.466 4.583 8.099 4.537 3.647-.038 5.617-2.182 6.826-3.369 1.284-1.254 3.973-1.646 5.16-1.051.596.292.565 1.108.016 2.147-2.326 4.421-7.215 6.883-12.226 6.942-4.27.046-9.122-1.93-12.04-6.455C-8.688 6.338-8.549.097 0 0" style="fill:#00588a;fill-opacity:1;fill-rule:nonzero;stroke:none" transform="matrix(7.65187 0 0 -7.65187 530.359 126.747)"/><path d="M0 0c5.006 0 9.088-4.127 9.088-9.229 0-5.101-4.082-9.235-9.088-9.235-5.016 0-9.076 4.134-9.076 9.235C-9.076-4.127-5.016 0 0 0m-9.975-34.329c.899.092.946 1.203.946 1.203v12.863c2.439-1.968 5.564-3.144 9.021-3.144 7.926 0 14.149 6.136 14.149 14.149 0 7.999-6.223 14.135-14.149 14.135-7.931 0-14.131-6.136-14.131-14.135v-18.733s-.248-2.482.938-4.22c.828-1.207 1.978-2.065 3.226-2.118" style="fill:#00588a;fill-opacity:1;fill-rule:nonzero;stroke:none" transform="matrix(7.65187 0 0 -7.65187 108.355 37.319)"/></svg>